<svg xmlns="http://www.w3.org/2000/svg" xmlns:xlink="http://www.w3.org/1999/xlink" viewBox="0 0 48 48"><defs><filter x="-.066" width="1.133" y="-.162" height="1.324" id="0"><feGaussianBlur stdDeviation="1.39853"/></filter><linearGradient id="5"><stop stop-color="#fff"/><stop offset="1" stop-color="#babdb6"/></linearGradient><linearGradient xlink:href="#1" id="7" gradientUnits="userSpaceOnUse" gradientTransform="matrix(.43054-.53198.49313.46446 18.912 27.93)" y1="3" x2="0" y2="9"/><linearGradient xlink:href="#5" id="8" gradientUnits="userSpaceOnUse" gradientTransform="matrix(1.02064 0 0 .84163.499 7.94)" y1="37.21" x2="0" y2="43"/><linearGradient id="6" gradientUnits="userSpaceOnUse" gradientTransform="matrix(.9558 0 .32034-.79155-8.927 48.19)" x1="26.322" y1="19.02" x2="49.735" y2="3.516"><stop stop-color="#2e3436" stop-opacity=".582"/><stop offset="1" stop-color="#2e3436" stop-opacity="0"/></linearGradient><linearGradient id="4" gradientUnits="userSpaceOnUse" gradientTransform="matrix(.43054-.53198.49313.46446 18.912 27.93)" y1="4.265" x2="0" y2="8"><stop stop-color="#eeeeec"/><stop offset="1" stop-color="#888a85"/></linearGradient><linearGradient id="2" gradientUnits="userSpaceOnUse" gradientTransform="matrix(.43054-.53198.49313.46446 18.912 27.93)" y1="3.5" x2="0" y2="8.5"><stop stop-color="#eeeeec"/><stop offset=".797" stop-color="#abaca9"/><stop offset="1" stop-color="#d3d7cf"/></linearGradient><linearGradient id="1"><stop stop-color="#888a85"/><stop offset="1" stop-color="#4a4b48"/></linearGradient><linearGradient xlink:href="#1" id="3" gradientUnits="userSpaceOnUse" gradientTransform="matrix(.43054-.53198.49313.46446 18.912 27.93)" y1="4" x2="0" y2="8"/><radialGradient xlink:href="#5" id="B" gradientUnits="userSpaceOnUse" gradientTransform="matrix(9.0784-4.3798.744 1.45288-269.26 125.69)" cx="31.33" cy="19.15" r="4.744"/><radialGradient id="A" gradientUnits="userSpaceOnUse" gradientTransform="matrix(.11379.6773-.46796.00472 14.14 6.614)" cx="6.6" cy="1.885" r="11.581"><stop stop-color="#888a85" stop-opacity="0"/><stop offset="1" stop-color="#888a85"/><stop offset="1" stop-color="#888a85"/></radialGradient><radialGradient id="9" gradientUnits="userSpaceOnUse" gradientTransform="matrix(2.46155-1.06993.79981 1.85282-21.2 5.902)" cx="7.671" cy="15.01" r="19.769"><stop stop-color="#fff"/><stop offset="1" stop-color="#d3d7cf"/></radialGradient></defs><path d="m13.917 11.5c-2.179 2.171 14.372 3.925 15.524 5.428 2.955 3.851-15.633 2.304-19.2 4.269-4.685 1.871 6.673 1.701 6.673 5.326" fill="none" fill-rule="evenodd" stroke="url(#A)" stroke-linejoin="round" stroke-linecap="round"/><path d="m12.194 28.5h26.15c0 0 .844-.029 1.311.989 0 0 6.05 14.02 6.41 14.821.336.76-.855 1.446-1.917 1.446h-38.23c-1.062 0-2.253-.686-1.917-1.446.355-.803 6.882-14.821 6.882-14.821.312-.9 1.311-.989 1.311-.989" opacity=".271" filter="url(#0)"/><path d="m12.448 25.5h24.582c0 0 .793-.03 1.233 1.016 0 0 5.792 15.24 6.124 16.06.314.776-.799 1.477-1.791 1.477h-35.713c-.992 0-2.104-.701-1.791-1.477.332-.82 6.124-16.06 6.124-16.06.293-.925 1.233-1.016 1.233-1.016" fill="url(#8)"/><path d="m12.448 25.5h24.582c0 0 .793-.03 1.233 1.016 0 0 5.792 15.24 6.124 16.06.314.776-.799 1.477-1.791 1.477h-35.713c-.992 0-2.104-.701-1.791-1.477.332-.82 6.124-16.06 6.124-16.06.293-.925 1.233-1.016 1.233-1.016" opacity=".5" fill="url(#9)"/><g fill="none" stroke-linejoin="round" stroke-linecap="round"><path d="m13.09 26h23.289c0 0 .752-.028 1.168.946 0 0 5.382 14.728 5.694 15.487 0 0 .685 1.066-.849 1.066h-34.88c-2.188 0-1.285-1.066-1.285-1.066.312-.76 5.694-15.487 5.694-15.487.277-.862 1.168-.946 1.168-.946z" stroke="#fff" stroke-width="1.2"/><path d="m12.5 25.52h24.416c0 0 .908.204 1.347 1.236 0 0 5.792 15.03 6.124 15.841.314.765-.499 1.903-1.491 1.903h-36.37c-.992 0-1.742-1.138-1.429-1.903.332-.809 6.124-15.841 6.124-15.841.293-.913 1.284-1.236 1.284-1.236z" stroke="#555753" stroke-width="1.04"/><path d="m14.493 28.485h19.931c0 0 .609-.014.943.614 0 0 3.612 8.89 3.856 9.367.231.451-.593.862-1.324.862h-26.313c-.731 0-1.555-.41-1.324-.862.244-.477 3.287-9.367 3.287-9.367.223-.555.943-.614.943-.614z" stroke="#888a85" stroke-width=".8"/></g><path d="m22.324 33.13l1.301 1.719.424.525 7.127 3.867 1.329.382 6.137 3.055h4.129c.197-.166.326-.358.368-.573l-6.929-3.461-.566-.573-7.947-3.652-1.273-.31-4.101-.979" opacity=".2" fill="url(#6)"/><g transform="matrix(1.13962 0 0 1.11574-2.208-.637)"><path d="m40.07 6.619l.44-.544c.236-.291.643-.321.913-.067l.504.475c.27.254.298.694.062.985l-.44.544c-.236.291-.643.321-.913.067l-.504-.475c-.27-.254-.298-.694-.062-.985" fill="#888a85"/><path d="m22.27 29.686l1.628-3.623 1.973 1.858-3.108 2.229-.493-.464" fill="url(#4)"/><path d="m40.07 6.619l.44-.544c.236-.291.643-.321.913-.067l.504.475c.27.254.298.694.062.985l-.44.544c-.236.291-.643.321-.913.067l-.504-.475c-.27-.254-.298-.694-.062-.985z" fill="url(#3)" stroke="#babdb6" stroke-linejoin="round" stroke-linecap="round" stroke-width=".887"/><path d="m33.437 19.11l7.548-9.326c.59-.729.825-1.537.524-1.821l-1.387-1.306c-.302-.284-1.013.077-1.602.805l-7.548 9.326 2.466 2.322" fill="url(#2)"/><g fill="none" stroke="#fff" stroke-linejoin="round" stroke-linecap="round" stroke-width=".887"><path d="m33.437 19.11l7.548-9.326c.59-.729.52-1.276.219-1.56l-1.387-1.306c-.302-.284-.708-.185-1.297.544l-7.548 9.326 2.466 2.322z"/><path d="m22.517 29.919l1.382-3.855 1.973 1.858-3.354 1.997z"/></g><path d="m23.683 26.33l1.973 1.858.677-.3 6.705-7.747.399-1.03-2.466-2.322-.892.566-6.212 8.212-.184.764" fill="url(#7)"/><path d="m23.683 26.33l1.973 1.858.677-.3 6.705-7.747.399-1.03-2.466-2.322-.892.566-6.212 8.212-.184.764z" fill="none" stroke="url(#B)" stroke-linejoin="round" stroke-linecap="round" stroke-width=".887"/><path d="m22.05 29.952c-.119.147-.105.37.031.498.136.128.343.113.462-.034l.431-.532-.493-.464-.431.532" color="#000" fill-rule="evenodd" fill="#eeeeec"/><path d="m22.06 30.486l3.508-1.807 1.098-.515 6.785-7.71.507-1.3 7.616-9.411c.578-.714.833-1.616.533-2.01l.395-.488c.244-.302.166-.815-.173-1.134l-.619-.583c-.339-.319-.821-.334-1.065-.032 0 0-.242.299-.395.488-.399-.268-1.193.126-1.771.84l-7.616 9.411-1.126.717-6.166 8.293-.324 1.244-1.187 3.994z" fill="none" stroke="#2e3436" stroke-width=".763" stroke-miterlimit="1"/></g></svg>