<svg xmlns="http://www.w3.org/2000/svg" xmlns:xlink="http://www.w3.org/1999/xlink" viewBox="0 0 48 48"><defs><rect id="0" width="23" x=".5" y=".5" rx="2.075" height="27"/><path id="1" d="m5.498 18.5h13" fill-rule="evenodd" fill="none" stroke-linecap="round"/><path id="2" d="m5.498 15.5h13" fill-rule="evenodd" fill="none" stroke-linecap="round"/><path id="3" d="m5.498 9.5h13" fill-rule="evenodd" fill="none" stroke-linecap="round"/><radialGradient id="4" gradientUnits="userSpaceOnUse" gradientTransform="matrix(2.42448 0 0 2.82856-21.723-36.818)" cx="15.25" cy="20.75" r="12"><stop stop-color="#fff"/><stop offset="1" stop-color="#e0e0e0"/></radialGradient><radialGradient id="5" cx="25.01" cy="27.671" r="21.302" gradientTransform="matrix(1 0 0 .95436 0 1.263)" gradientUnits="userSpaceOnUse"><stop/><stop offset="1" stop-opacity="0"/></radialGradient></defs><path d="M46.31549 27.670679A21.301592 20.329321 0 1 1 3.712311 27.670679 21.301592 20.329321 0 1 1 46.31549 27.670679" transform="matrix(.83325.82648-.70422.70998 21.643-16.649)" opacity=".2" fill="url(#5)" fill-rule="evenodd"/><g transform="matrix(.86603.5-.5.86603 27.608 11.876)"><g><use color="#000" stroke-width=".9" stroke-miterlimit="10.433" fill="url(#4)" stroke="#747672" xlink:href="#0"/><rect rx="1.164" y="1.5" x="1.5" height="25" width="21" stroke-opacity=".941" color="#000" stroke-miterlimit="10.433" fill="none" stroke="#fff" id="6"/></g><g stroke="#babdb6"><use stroke-width=".9" xlink:href="#1"/><path d="m5.48 21.5h6.06" fill="none" fill-rule="evenodd" stroke-linecap="round" stroke-width=".9" id="7"/><use stroke-width=".9" xlink:href="#2"/><path d="m5.498 12.5h13" fill="none" fill-rule="evenodd" stroke-linecap="round" stroke-width=".9" id="8"/><use stroke-width=".9" xlink:href="#3"/><path d="m5.498 6.5h13" fill="none" fill-rule="evenodd" stroke-linecap="round" stroke-width=".9" id="9"/></g></g><path d="m28.375 12.75c-.841.059-1.641.528-2.094 1.313l-11.438 19.813c-.024.042-.041.082-.063.125l13.531 3.625c1.724.462 3.507-.557 3.969-2.281l4.844-18.06-7.281-4.188c-.471-.272-.964-.379-1.469-.344" opacity=".1" color="#000" stroke="none"/><g transform="matrix(.96593.25882-.25882.96593 15.03 4.371)"><g><use color="#000" stroke-width=".9" stroke-miterlimit="10.433" fill="url(#4)" stroke="#747672" xlink:href="#0"/><use xlink:href="#6"/></g><g stroke="#babdb6"><use stroke-width=".9" xlink:href="#1"/><use xlink:href="#7"/><use stroke-width=".9" xlink:href="#2"/><use xlink:href="#8"/><use stroke-width=".9" xlink:href="#3"/><use xlink:href="#9"/></g></g><g color="#000"><path d="m17 4.906c-1.207-.074-2.331.722-2.656 1.938l-5.844 21.75h12.938c1.724 0 3.156-1.432 3.156-3.156v-18.563l-7.06-1.875c-.174-.047-.359-.083-.531-.094" opacity=".1"/><g stroke-miterlimit="10.433"><use fill="url(#4)" stroke="#888a85" xlink:href="#0"/><rect rx="1.164" y="1.5" x="1.5" height="25" width="21" stroke-opacity=".941" fill="none" stroke="#fff"/></g></g><g stroke="#babdb6"><use xlink:href="#1"/><path d="m5.48 21.5h6.06" fill="none" fill-rule="evenodd" stroke-linecap="round"/><use xlink:href="#2"/><path d="m5.498 12.5h13" fill="none" fill-rule="evenodd" stroke-linecap="round"/><use xlink:href="#3"/><path d="m5.498 6.5h13" fill="none" fill-rule="evenodd" stroke-linecap="round"/></g></svg>