<svg xmlns="http://www.w3.org/2000/svg" xmlns:xlink="http://www.w3.org/1999/xlink" enable-background="new" viewBox="0 0 300 300"><defs><clipPath id="0"><path d="m160.5 96.75c0 25.16-24.559 68.34-31.25 67.823-6.69-.51-31.25-42.15-31.25-67.82 0-17.259 13.99-31.25 31.25-31.25 17.259 0 31.25 13.991 31.25 31.25z"/></clipPath><filter id="9" width="1.125" y="-.145" x="-.063" height="1.29" color-interpolation-filters="sRGB"><feGaussianBlur stdDeviation="1.67025"/></filter><filter id="A" width="1.445" y="-.385" x="-.222" height="1.769" color-interpolation-filters="sRGB"><feGaussianBlur stdDeviation="2.52429"/></filter><filter id="B" color-interpolation-filters="sRGB"><feGaussianBlur stdDeviation="1.10941"/></filter><filter id="D" color-interpolation-filters="sRGB"><feGaussianBlur stdDeviation=".94054"/></filter><filter id="E" color-interpolation-filters="sRGB"><feGaussianBlur stdDeviation="1.3917"/></filter><filter id="8" width="1.372" y="-.07" x="-.186" height="1.141" color-interpolation-filters="sRGB"><feGaussianBlur stdDeviation=".87146"/></filter><filter id="C" color-interpolation-filters="sRGB"><feGaussianBlur stdDeviation=".8177"/></filter><filter id="1" height="1.756" width="1.391" color-interpolation-filters="sRGB" y="-.378" x="-.195"><feGaussianBlur stdDeviation="14.80567"/></filter><filter id="2" width="1.166" y="-.132" x="-.083" height="1.264" color-interpolation-filters="sRGB"><feGaussianBlur stdDeviation="2.14676"/></filter><filter id="3" color-interpolation-filters="sRGB"><feGaussianBlur stdDeviation="1.26417"/></filter><filter id="7" height="1.972" width="1.879" color-interpolation-filters="sRGB" y="-.486" x="-.439"><feGaussianBlur stdDeviation="11.44231"/></filter><filter id="5" height="1.235" width="1.213" color-interpolation-filters="sRGB" y="-.118" x="-.106"><feGaussianBlur stdDeviation="2.77024"/></filter><filter id="6" height="1.2" width="1.694" color-interpolation-filters="sRGB" y="-.1" x="-.347"><feGaussianBlur stdDeviation="1.32794"/></filter><filter id="4" height="1.504" width="1.329" color-interpolation-filters="sRGB" y="-.252" x="-.165"><feGaussianBlur stdDeviation="4.56478"/></filter><linearGradient id="T" y2="37.82" gradientUnits="userSpaceOnUse" x2="125.53" y1="164.82" x1="129.2"><stop/><stop stop-opacity=".509" offset="1"/></linearGradient><linearGradient id="R" y2="169.25" gradientUnits="userSpaceOnUse" x2="112.75" y1="173.5" x1="98.5"><stop stop-color="#bdbdbd"/><stop stop-color="#cdcdcd" offset="1"/></linearGradient><linearGradient id="U" y2="190.55" gradientUnits="userSpaceOnUse" x2="182.08" y1="194.55" x1="153.19"><stop stop-color="#b9bab7"/><stop stop-color="#c7c7c5" offset="1"/></linearGradient><linearGradient id="S" y2="190.94" gradientUnits="userSpaceOnUse" x2="216.63" y1="225.44" x1="156.88"><stop stop-color="#d3d7cf"/><stop stop-color="#d4d9d1" offset=".939"/><stop stop-color="#e2e6e0" offset=".975"/><stop stop-color="#d4d8d0" offset="1"/></linearGradient><linearGradient id="W" y2="169.88" gradientUnits="userSpaceOnUse" x2="103.25" y1="159.38" x1="118"><stop/><stop stop-opacity=".373" offset="1"/></linearGradient><linearGradient id="Z" y2="-101.67" gradientUnits="userSpaceOnUse" x2="148.52" y1="-104.29" x1="147.71"><stop stop-color="#fff"/><stop stop-color="#d2d2d2" offset="1"/></linearGradient><linearGradient id="V" y2="246.56" gradientUnits="userSpaceOnUse" x2="38.875" y1="245.19" x1="36"><stop stop-color="#bcc4b6"/><stop stop-color="#bcc4b6" stop-opacity="0" offset="1"/></linearGradient><linearGradient id="Y" y2="179.62" gradientUnits="userSpaceOnUse" x2="102.88" y1="198.5" x1="31.5"><stop stop-color="#dfe2dc"/><stop stop-color="#e8eae5" offset="1"/></linearGradient><linearGradient id="Q" y2="195.5" gradientUnits="userSpaceOnUse" x2="156.5" y1="189" x1="105.5"><stop stop-color="#c6cbc1"/><stop stop-color="#b1b9ab" offset="1"/></linearGradient><linearGradient id="X" y2="170.55" gradientUnits="userSpaceOnUse" y1="172.3" x2="175.08" x1="113.81" xlink:href="#N"/><linearGradient id="P" y2="217" gradientUnits="userSpaceOnUse" x2="98.59" y1="218.75" x1="49.75"><stop stop-color="#ded9c4"/><stop stop-color="#f8d022" offset=".178"/><stop stop-color="#ebe3c1" offset="1"/></linearGradient><linearGradient id="J" y2="148" gradientUnits="userSpaceOnUse" x2="177.09" y1="211.5" x1="180"><stop stop-color="#d7c574"/><stop stop-color="#cfbb62" offset=".386"/><stop stop-color="#c6af4e" offset=".837"/><stop stop-color="#dfd39d" offset="1"/></linearGradient><linearGradient id="I" gradientUnits="userSpaceOnUse" x2="204.62" x1="189.12"><stop stop-color="#a38500"/><stop stop-color="#a38500" stop-opacity="0" offset="1"/></linearGradient><linearGradient id="F" gradientUnits="userSpaceOnUse" x2="196.66" x1="182.88"><stop stop-color="#bdc6b9"/><stop stop-color="#d5dbd3" offset="1"/></linearGradient><linearGradient id="H" gradientUnits="userSpaceOnUse" x2="157.12" x1="31.93"><stop stop-color="#d4d4cf"/><stop stop-color="#dededa" offset="1"/></linearGradient><linearGradient id="G" y2="229.12" gradientUnits="userSpaceOnUse" y1="224.38" x2="101.25" x1="77.25"><stop stop-color="#5e4e07"/><stop stop-color="#977d0a" offset=".81"/><stop stop-color="#5a4a06" offset="1"/></linearGradient><linearGradient id="O" y2="178.5" gradientUnits="userSpaceOnUse" x2="95.75" y1="163.38" x1="72.25"><stop stop-color="#e0e2de"/><stop stop-color="#e1e3df" stop-opacity="0" offset="1"/></linearGradient><linearGradient id="N" gradientUnits="userSpaceOnUse" x2="182.08" x1="130.81"><stop stop-color="#888a85"/><stop stop-color="#a4a5a1" offset="1"/></linearGradient><linearGradient id="K" y2="190.94" gradientUnits="userSpaceOnUse" x2="214.88" y1="213.56" x1="155.38"><stop stop-color="#d3d7cf"/><stop stop-color="#d4d9d1" offset=".939"/><stop stop-color="#dfe3dc" offset=".966"/><stop stop-color="#d4d8d0" offset="1"/></linearGradient><linearGradient id="M" y2="224.83" gradientUnits="userSpaceOnUse" x2="195.16" y1="234.46" x1="153.71"><stop stop-color="#a2a2a2"/><stop stop-color="#b6b6b6" offset="1"/></linearGradient><linearGradient id="L" y2="178.38" gradientUnits="userSpaceOnUse" x2="139" y1="252.38" x1="141.5"><stop stop-color="#826a00"/><stop stop-color="#d9b100" offset="1"/></linearGradient><radialGradient id="j" gradientUnits="userSpaceOnUse" cy="197.92" cx="77.29" gradientTransform="matrix(1.1301-.29268.18142.70047-44.498 83.73)" r="30.75"><stop stop-color="#fff"/><stop stop-color="#fff" stop-opacity="0" offset="1"/></radialGradient><radialGradient id="i" gradientUnits="userSpaceOnUse" cy="-93.84" cx="153.47" gradientTransform="matrix(2.8373-1.6877.70239 1.1809-222.03 265.86)" r="47.36" xlink:href="#j"/><radialGradient id="k" gradientUnits="userSpaceOnUse" cy="116" cx="127.89" gradientTransform="matrix(1.3494 0 0 2.1018-44.686-127.81)" r="31.25"><stop stop-color="#ff4141"/><stop stop-color="#d30909" offset=".859"/><stop stop-color="#c00" offset="1"/></radialGradient><radialGradient id="l" gradientUnits="userSpaceOnUse" cy="252.84" cx="61.91" gradientTransform="matrix(2.806-1.4274.20469.4024-184.23 235.37)" r="34.75"><stop stop-color="#1f221d"/><stop stop-color="#84917c" offset="1"/></radialGradient><radialGradient id="m" gradientUnits="userSpaceOnUse" cx="149.46" cy="199.95" r="9.634" gradientTransform="matrix(.83468.02061-.01532.88991 27.801-185.49)"><stop stop-color="#cccfca"/><stop stop-color="#aeb5a8" stop-opacity="0" offset="1"/></radialGradient><radialGradient id="n" gradientUnits="userSpaceOnUse" cy="122.21" cx="125.57" gradientTransform="matrix(1.456 0 0 2.3081-38.688-340.39)" r="31.25"><stop stop-color="#f57676"/><stop stop-color="#ed1212" offset="1"/></radialGradient><radialGradient id="h" gradientUnits="userSpaceOnUse" cy="262.1" cx="59.11" gradientTransform="matrix(.9013-.20563.0448.19636-5.908 213.87)" r="30.394"><stop stop-color="#b5b5ac"/><stop stop-color="#78786c" offset="1"/></radialGradient><radialGradient id="c" gradientUnits="userSpaceOnUse" cy="160.25" cx="168" gradientTransform="matrix(1.6269-.08955.10008 1.8181-121.35-316.06)" r="16.75" xlink:href="#g"/><radialGradient id="a" gradientUnits="userSpaceOnUse" cy="49.24" cx="149.49" gradientTransform="matrix(1.0999 0 0 .47383-14.938-164.97)" r="34.5" xlink:href="#j"/><radialGradient id="b" gradientUnits="userSpaceOnUse" cy="224.32" cx="157.64" gradientTransform="matrix(2.554-.28777.08055.7149-210.92 106.25)" r="34.75"><stop stop-color="#383e34"/><stop stop-color="#84917c" offset="1"/></radialGradient><radialGradient id="g" gradientUnits="userSpaceOnUse" cy="129.84" cx="129.25" r="34.937"><stop stop-color="#fabebe"/><stop stop-color="#fabebe" stop-opacity="0" offset="1"/></radialGradient><radialGradient id="o" gradientUnits="userSpaceOnUse" cy="217.75" cx="147.62" gradientTransform="matrix(1 0 0 .52023 0 107.47)" r="21.625"><stop stop-color="#97a18f"/><stop stop-color="#b1b9ab" stop-opacity="0" offset="1"/></radialGradient><radialGradient id="e" gradientUnits="userSpaceOnUse" cy="247.24" cx="209.63" gradientTransform="matrix(1.0253-.31924.20099.64548-39.617 121.84)" r="35.5" xlink:href="#j"/><radialGradient id="f" gradientUnits="userSpaceOnUse" cy="194.62" cx="149.38" gradientTransform="matrix(1 0 0 .57798 0 82.14)" r="13.625"><stop/><stop stop-opacity="0" offset="1"/></radialGradient><radialGradient id="d" gradientUnits="userSpaceOnUse" cy="251.22" cx="86.16" gradientTransform="matrix(1.7482-.08633.03548.71855-73.79 73.67)" r="34.75"><stop stop-color="#0e100d"/><stop stop-color="#687361" offset="1"/></radialGradient></defs><g color="#000"><path opacity=".189" d="m163 258l72-5-48-89-99 4-35 90z" filter="url(#1)"/><g transform="matrix(1.0925 0 0 1.0925-1.206-13.508)"><path opacity=".358" d="m195.12 140.34c-.139.011-.276.043-.406.094l-42 17.06-39.71-15.05c-.319-.12-.681-.12-1 0l-46 17.25c-.474.176-.835.625-.906 1.125l-3.875 31.22-.438.063c-.751.109-1.325.91-1.188 1.656l.313 1.781-.844.5c-.51.291-.8.924-.688 1.5l.406 2-28.406 54.31c1.593 6.247 10.801 2.975 11.844 2.75l52.09-35.72 61.31 29.65c.379.181.84.181 1.219 0l7.818-2.056.995 5.244c24.15-6.354 45.29-16.26 66.781-30.594 2.076-1.77 2.077-5.688 1.5-6.625l-17.594-26.844.469-1.094c.269-.629 0-1.439-.594-1.781l-1.375-.844.16-.32c.298-.595.102-1.392-.438-1.781l-2.156-1.5-15.84-41.09c-.216-.568-.832-.956-1.438-.906z" filter="url(#3)"/><g><path opacity=".416" d="m162.75 221c0 1 1.25 33.5 1.25 33.5l65.25-24.5-9.75-19z" transform="matrix(.98586 0 0 1.0382 2.146-10.146)" filter="url(#4)"/><path opacity=".576" d="m40.5 259.5l51.5-6.5 16.724-15.484 48.38 17.821 48.29-6.02-5.01-66.53-4.206-32.611-49.47 16.682-34.576-15.7-44.38 17.295 4.715 25.63z" filter="url(#7)"/><path d="m164.75 225.75l.75 27c21.77-7.01 43.17-14.582 61-27.5 3.75-1.25 7.625-3.625 6.625-6.875s-7.125-11.125-7.125-11.125z" fill="url(#b)"/><path d="m40.5 260l51.5-6.5 11-50-44.5 13z" filter="url(#5)"/><path d="m42 259.12l9.375-14 45-11-2.25 14.25s-1.37 2.954-4.375 3.75z" fill="url(#d)"/><path d="m32.25 253.25s1.461 4.481 3.586 4.106l51.914-12.11c3.094-.265 5.525.85 5.75 3 .191 1.825-2.04 2.881-4.25 3.5l-48 7.5 2.5.5 46.75-7.25c2.74-.663 4-2.5 4.25-4.25l8.75-38.5-40 3.75z" fill="url(#l)"/><path d="m61.75 249.75l5.5-13.5c.25-2 5-5.25 9.5-5.75 0 0 9.693-1.683 19.75-3 2.181-.286 2 4.75 2 4.75l3.25-12.5-4.5-7.75-25.5 6c-6.454 4.458-12.454 4.377-19.5 14.75l-6.75 20.5z" fill="url(#G)"/><path opacity=".432" d="m89 244.75l3.5 1.25 7.75-28-1.75-1.75z" filter="url(#8)" fill="#a8b0a4"/><path opacity=".597" d="m39.5 247.5c1-2 52.5-22.5 52.5-22.5l7.5 5.5 2-11-10.5-11z" filter="url(#2)"/><path d="m112.5 142.5-46.5 18.5-4.5 34.88-28.75 54.87c13.337-4.87 42.628-18.28 58.25-31.75l16.5-39.5z" fill="url(#Y)"/><path d="m112.5 142.5l34.5 16.5 5.5 35.5 3.203 43.24.8 10.76c-19.51-12.65-41.79-19.76-62.986-29.03-1.75-.88-2.514-.47-2.514-.47l16.5-39.5z" fill="url(#Q)"/><path d="m197 144.25c-.625-1.875-2.359-3.35-3.734-2.725l-46.27 17.48 5.5 35.5-.112 26.49 4.11 27.51c25.686-9.11 48.22-20.441 69.937-32.357 3-1.375 5.688-.143 5.688-.143l-19.62-31.5z" fill="url(#S)"/><path d="m197 144.25c-.625-1.875-2.359-3.35-3.734-2.725l-46.27 17.48 5.5 35.5.5 4.75 59-15.875z" fill="url(#K)"/><path opacity=".403" d="m61.01 195.94l46.49-15.94-17 38.5-55.771 32.801z" fill="url(#j)"/><path opacity=".638" d="m212 188l-59 11.625 3.5 47.12c24.754-8.778 48.35-19.17 70.75-31.25z" filter="url(#D)" fill="url(#e)"/><path opacity=".601" d="m60.919 194.56c-.087.242.089 1.594.089 1.594s-.071.11-.277.37c-.13.164-.692.627-.692.627l.4.428-28.815 56.54 4.125-2.12 26.5-56.5c.218-1.869-.232-2.279-1.331-.939z" fill="url(#V)"/><path d="m156.5 248.75c24.996-8.702 47.543-20.298 70-32 4-1.625 5.625-.625 5.625-.625s-3.125-1.875-6.125-.625c-21.604 10.754-55.16 25.798-67 30.544-1.898-1.175-2.919-1.01-2.747.956z" fill="#eeeeec"/><path d="m156.88 248.75c-19.699-13.1-42.495-20.01-64.1-29.3-16.16 12.483-35.33 22.838-55.95 31.21-3.5 1.75-3.394 5.43-3.394 5.43s-5.973-6.25 5.652-8.125c3.103.92 56.759-30.73 53.91-31.09 21.03 9.351 44.58 17.797 64.12 30.12z" fill="url(#H)"/><path d="m32.711 255c1.221 1.913 4.123 2.329 6.368 1.905 15.3-2.89 46.9-11.03 51.42-10.9 1.733.05 3 2 3 2s.015-2.592-2.625-3c-9.06-2.037-54.26 12.96-58.16 9.996" fill="url(#h)"/><path d="m60.909 193.57c-.238 1.19.182 2.309.182 2.309l20.942-7.205z" fill="#c6cbc1"/><path d="m59.812 197.32c-.286.571-.146 1.901-.146 1.901l25.17-10.337z" fill="#d6dad2"/><g fill="#edefeb"><path d="m62.32 192.3c-.524.143-1.435 1.21-1.435 1.21l21.232-4.86z"/><path d="m61.23 195.73c-.524.143-1.435 1.496-1.435 1.496l24.469-8.193z"/></g><path d="m211.26 181.13c.771.938.926 2.122.926 2.122l-33.623 8.987z" fill="#c6cbc1"/><path d="m213.75 184.48c.896 1.244-.226 1.983-.226 1.983l-38.29 7.184z" fill="#d6dad2"/><g fill="#edefeb"><path d="m209.42 180.67c.529-.121 1.835.392 1.835.392l-31.802 11.01z"/><path d="m212.19 183.62c.529-.121 1.532 1.081 1.532 1.081l-37.823 8.897z"/></g><path d="m215.5 187.48c.896 1.244-.226 1.983-.226 1.983l-22.537 2.434z" fill="#d6dad2"/><path d="m213.94 186.62c.529-.121 1.532 1.081 1.532 1.081l-23.2 3.772z" fill="#edefeb"/><path d="m152.5 220.75l2.25 14.5-43.25-22.5z" fill="url(#o)"/><path d="m107.77 179.56l29.584 9.599-30.23-8.173z" fill="#a7b0a0"/><path d="m107.75 179.56l-.969.031-6.563 2.844 6.375-2.219.594.781z" fill="#f0f2ef"/><path d="m228.75 224c-18.203 13.263-40.18 21.68-63 29l-.25-2.75c22.866-5.897 43.714-15.03 63.25-26.25" fill="#9aa894"/><path d="m183.49 145.14l10.165-3.889c1.856-.442 3.01 1.945 3.01 1.945s-1.679-1.326-3.182-.707l-10.607 4.066z" fill="url(#F)"/><path d="m182.99 146.52l10.29-4.01c1.856-.442 2.505.32 2.505.32s-1.179.299-2.682.918l-10.732 4.191z" fill="#f7f8f6"/><path d="m112.38 142.5l-4.875 37.12-29.5 10-16.12 2.625 4.25-31.25z" fill="url(#O)"/><path d="m65.37 166.12l.875-5.375 46.562-18.688 1.875.5-1.719.219-1.219.344-45.25 18.5z" fill="#f7f8f6"/></g><path d="m153.28 226.54s-.168-1.603.944-2.02c1.315-.495 1.852.849 1.852.849l26.92-11.37c14.502-4.462 20.985-14.455 21.09-25.25.006-.624.554-1.25.518-1.879-.026-.457-.626-.914-.674-1.372-.066-.627.41-1.381.303-2.01-.061-.362-.692-.598-.767-.96-.35-1.68-.84-3.37-1.47-5.03l-15-32.5-13.5 4.5 13.5 32.5c.71 1.989 1.138 4.139 1.123 6.313 0 .21-.47.76-.017.63 0 0-.027.462-.048.694-.47 5.04-3.49 10.07-11.06 13.36l-21.862 9.357s-.316-.945-1.519-.747c-1.322.218-1.119 1.448-1.119 1.448z" fill="url(#J)"/><path d="m105 188l-20.873 10.823 4.874-12.798 2.139-34.411-12.154 5.749-2.13 33.34-4.803 14.379-21.05 10.92-7.5 15 56.5-32z" fill="url(#P)"/><path d="m152.5 213l.765 13.588c-7.9-5.942-15.727-12.156-24.09-15.758l-2.971 20.595-11.152-4.861 3.413-21.309c-6.16-3.04-11.42-4.52-17.97-6.26l3.293-9.232c17.26 5.19 33.04 12.99 48.71 23.23z" fill="url(#L)"/><path d="m127.09 195.03l1.41-11.03 1-30.5-16.75-8.5-4.75 34.5-2 6c7.129 2.341 13.735 5.143 21.09 9.528z" fill="url(#X)"/><path d="m88.5 193.5l4.75-8.75 2-31.75 17.5-8-4.75 34.5-2 6z" fill="url(#R)"/><path d="m112 143.25l-4.84 33.819.282 1.208-1.639.491.816 1.209-16.245 39.4c.985-.623 1.768-.527 2.422-.156l14.953-39.72 5.25-35.88z" fill="#f9faf9"/><path d="m204.31 183.69l-.25 1.688-15.81 3.62z" fill="#c5a100"/><path d="m204.62 187.25l-.688 1.25-14.812 2.375z" fill="url(#I)"/><path d="m159.45 191.96l-4.95-13.789 22.627-7.425 6.623 15.624-6.976 11.953-21.561 9.194-.933-13.655z" fill="url(#U)"/><path d="m152.12 209.64c-7.399-4.02-13.484-10.841-21.302-13.612v-10.43l20.683 9.634z" fill="url(#N)"/><path d="m150.61 179.44l2.121 13.08-22.627-10.253.354-12.374z" fill="#686965"/><path d="m143.54 224.69l.707 12.02 11.314 5.834-1.856-11.932z" fill="url(#N)"/><g fill="url(#M)"><path d="m166.88 224.34l2.828 12.02 25.456-11.932-3.801-11.137z"/><path d="m161.84 226.37l2.21 11.49-8.485 4.685-1.856-11.932z"/></g><path opacity=".305" d="m95.5 153l17-8 19 8.5-4.25 32.75-19.25-8.5-15 7z" fill="url(#W)"/><g fill-opacity=".614"><path opacity=".214" d="m108.36 177.85l15.91 7.248-16.44-6.187z"/><path opacity=".214" d="m107.66 180.06l16.617 5.04-16.44-6.187z" fill="#fff"/><path opacity=".214" d="m108.5 176.39l17.13 3.506-17.408-2.353z"/><path opacity=".214" d="m108.3 178.7l17.323 1.194-17.408-2.353z" fill="#fff"/></g><g fill-opacity=".254"><path opacity=".305" d="m155.25 212.5c.432 11.24 2.147 22.48 3.58 33.72-.315-.402-.675-.786-1.635-.928-1.411-11.27-2.8-22.406-3.315-33.676.596-.077 1.124.026 1.37.884"/><path opacity=".7" d="m152.6 212.67c.432 11.24 1.087 21.243 3.403 34.604-.315-.402 2.153-1.847 1.193-1.989-1.411-11.27-2.8-22.406-3.315-33.676.596-.077-1.527.203-1.282 1.061" fill="#fff"/></g><g transform="translate(0 200)"><g fill="url(#f)"><path opacity=".35" d="m163 194.62a13.625 7.875 0 1 1 -27.25 0 13.625 7.875 0 1 1 27.25 0" transform="matrix(1.6984 0 0 1.6984-104.33-335.93)" filter="url(#A)"/><path opacity=".35" d="m163 194.62a13.625 7.875 0 1 1 -27.25 0 13.625 7.875 0 1 1 27.25 0" transform="translate(0-200)"/></g><path d="m195-101.5c0 36.629-35.76 99.5-45.5 98.75s-45.5-61.37-45.5-98.75c0-25.13 20.371-45.5 45.5-45.5s45.5 20.371 45.5 45.5" fill="url(#n)"/><path opacity=".626" d="m160.5 96.75a31.25 31.25 0 1 1 -62.5 0 31.25 31.25 0 1 1 62.5 0" transform="matrix(1.104 0 0 1.104 6.808-206.56)" filter="url(#E)" fill="url(#g)"/><path d="m160.5 96.75a31.25 31.25 0 1 1 -62.5 0 31.25 31.25 0 1 1 62.5 0" transform="matrix(1.104 0 0 1.104 6.808-208.31)" fill="url(#k)"/><path opacity=".453" d="m149.49-146.85c-17.694 0-32.04 11.06-32.04 24.694 0 .984.087 1.954.232 2.908 1.876-12.26 15.395-21.764 31.806-21.764s29.959 9.504 31.835 21.764c.145-.954.203-1.924.203-2.908 0-13.638-14.344-24.694-32.04-24.694" filter="url(#9)" fill="url(#a)"/><path opacity=".35" d="m160.5 96.75c0 25.16-24.559 68.34-31.25 67.823-6.69-.51-31.25-42.15-31.25-67.82 0-17.259 13.99-31.25 31.25-31.25 17.259 0 31.25 13.991 31.25 31.25z" clip-path="url(#0)" transform="matrix(1.456 0 0 1.456-38.688-242.37)" filter="url(#C)" stroke="url(#T)" stroke-width="1.374" fill="none"/><path opacity=".626" d="m184.75-63.75c-5.783 16.457-14.305 33.461-26.75 51.25l-3.25 2.5c14.721-20.2 22.478-41.531 26-60.25z" fill="url(#c)"/><path opacity=".37" d="m149.57-4.387c-3.618 0-7.97-8.839-7.97-8.839l16.09-.884s-4.151 9.723-8.117 9.723" fill="url(#m)"/><path d="m172-127.56c-14.12-12.796-35.935-11.726-48.732 2.391-8.465 9.338-10.826 22.05-7.393 33.28 1.186-5.895 3.893-11.554 8.225-16.333 12.796-14.12 34.614-15.188 48.732-2.391 4.779 4.332 8.03 9.698 9.785 15.449 2.316-11.519-1.278-23.934-10.616-32.399" fill-opacity=".035"/><path d="m149.5-143.03c-22.992 0-41.531 18.539-41.531 41.531 0 17.429 8.668 41.723 18.656 61.31 4.994 9.794 10.304 18.468 14.844 24.594 2.27 3.063 4.357 5.481 6 7.03 1.191 1.124 1.962 1.518 2.188 1.688.312-.166 1.019-.517 1.938-1.344 1.592-1.433 3.676-3.797 5.938-6.844 4.523-6.093 9.849-14.877 14.844-24.812 9.99-19.871 18.656-44.597 18.656-61.62 0-22.992-18.539-41.531-41.531-41.531z" filter="url(#B)" stroke="url(#i)" fill="none"/><path filter="url(#6)" d="m144.97-119.19v31.812h9.188v-31.812h-9.188" transform="translate(0 1.414)"/><path fill="url(#Z)" d="m144.96-119.2h9.192v31.82h-9.192z"/></g></g></g></svg>