<svg xmlns="http://www.w3.org/2000/svg" xmlns:xlink="http://www.w3.org/1999/xlink" viewBox="0 0 48 48"><defs><path id="1" d="m-11.749 6.716h1.632v13.05h-1.632z" fill="#665400"/><filter id="2" x="-.02" width="1.039" y="-.411" height="1.823"><feGaussianBlur stdDeviation=".36415"/></filter><linearGradient id="3" gradientUnits="userSpaceOnUse" y1="11.411" x2="0" y2="64.24"><stop stop-color="#fff"/><stop offset="1" stop-color="#fff" stop-opacity="0"/></linearGradient></defs><path d="M46.5 43.8125A22.3125 1.0625 0 1 1 1.875 43.8125 22.3125 1.0625 0 1 1 46.5 43.8125" transform="matrix(1.05042 0 0 2.76471-1.407-83.19)" opacity=".58" fill="#272727" filter="url(#2)"/><path transform="matrix(.94444 0 0 1.0104 1.206-3.443)" fill="#d7c000" stroke="#665400" stroke-width="1.026" stroke-miterlimit="2" d="m1.305 10.959h45.527v30.678h-45.527z"/><path transform="matrix(.87986 0 0-.60306 2.76 34.22)" d="m1.305 21.322c14.818-5.22 29.952-5.828 45.527 0v20.314h-45.527v-20.314" opacity=".268" fill="#fff"/><use transform="matrix(.61283 0 0 .76603 14.963 5.01)" xlink:href="#1"/><use transform="matrix(.61283 0 0 .45962 16.963 7.07)" xlink:href="#1"/><use transform="matrix(.61283 0 0 .45962 18.963 7.07)" xlink:href="#1"/><use transform="matrix(.61283 0 0 .45962 20.963 7.07)" xlink:href="#1"/><use transform="matrix(.61283 0 0 .45962 22.963 7.07)" xlink:href="#1"/><path fill="#665400" stroke-width=".613" d="m17.763 10.158h1v8h-1z"/><use transform="matrix(.61283 0 0 .45962 26.963 7.07)" xlink:href="#1"/><use transform="matrix(.61283 0 0 .45962 28.963 7.07)" xlink:href="#1"/><use transform="matrix(.61283 0 0 .45962 30.963 7.07)" xlink:href="#1"/><use transform="matrix(.61283 0 0 .45962 32.963 7.07)" xlink:href="#1"/><use transform="matrix(.61283 0 0 .76603 34.959 5.01)" xlink:href="#1"/><use transform="matrix(.61283 0 0 .45962 36.963 7.07)" xlink:href="#1"/><use transform="matrix(.61283 0 0 .45962 38.963 7.07)" xlink:href="#1"/><use transform="matrix(.61283 0 0 .45962 40.963 7.07)" xlink:href="#1"/><use transform="matrix(.61283 0 0 .45962 42.963 7.07)" xlink:href="#1"/><path fill="#665400" stroke-width=".613" d="m37.763 10.158h1v8h-1z"/><use transform="matrix(.61283 0 0 .45962 46.963 7.07)" xlink:href="#1"/><use transform="matrix(.61283 0 0 .45962 48.963 7.07)" xlink:href="#1"/><path transform="matrix(.9017 0 0-.947 2.235 48.03)" fill="none" stroke="url(#3)" stroke-width="1.082" stroke-miterlimit="2" d="m1.305 10.959h45.527v30.678h-45.527z"/><path transform="matrix(-2.82843 0 0 1.63967 45.509-18.435)" fill="#665400" d="m5.922 24.268h.354v3.049h-.354z"/><path d="m6.25 21.344v5h4v-5h-4m1.324 1h1.676v3h-1.676v-3" transform="matrix(.75 0 0 1 2.076 0)" fill="#665400" id="0"/><use transform="matrix(-1 0 0 1 16.527 0)" xlink:href="#0"/></svg>